<svg width="23" height="24" viewBox="0 0 23 24" fill="none" xmlns="http://www.w3.org/2000/svg">
<path d="M23 12C23 18.3528 17.8528 23.5 11.5 23.5C5.14718 23.5 0 18.3528 0 12C0 5.64718 5.14718 0.5 11.5 0.5C17.8528 0.5 23 5.64718 23 12ZM12.2883 17.2817L18.5716 10.9984C19.0075 10.5625 19.0075 9.85766 18.5716 9.42641L17.7833 8.6381C17.3474 8.20222 16.6425 8.20222 16.2113 8.6381L11.5 13.3494L6.78871 8.6381C6.35282 8.20222 5.64798 8.20222 5.21673 8.6381L4.42843 9.42641C3.99254 9.8623 3.99254 10.5671 4.42843 10.9984L10.7117 17.2817C11.1476 17.7175 11.8524 17.7175 12.2883 17.2817Z" fill="#5C5F62"/>
</svg>
