<svg width="34" height="34" viewBox="0 0 34 34" fill="none" xmlns="http://www.w3.org/2000/svg">
<path d="M28.333 14.1667C28.333 20.4255 16.9997 31.1666 16.9997 31.1666C16.9997 31.1666 5.66638 20.4255 5.66638 14.1667C5.66638 11.1609 6.86042 8.27823 8.98583 6.15282C11.1112 4.02742 13.9939 2.83337 16.9997 2.83337C20.0055 2.83337 22.8881 4.02742 25.0135 6.15282C27.139 8.27823 28.333 11.1609 28.333 14.1667V14.1667Z" stroke="#214E60" stroke-width="3.1544"/>
<path d="M16.9999 15.5834C17.3756 15.5834 17.7359 15.4341 18.0016 15.1685C18.2673 14.9028 18.4165 14.5424 18.4165 14.1667C18.4165 13.791 18.2673 13.4307 18.0016 13.165C17.7359 12.8993 17.3756 12.7501 16.9999 12.7501C16.6241 12.7501 16.2638 12.8993 15.9981 13.165C15.7324 13.4307 15.5832 13.791 15.5832 14.1667C15.5832 14.5424 15.7324 14.9028 15.9981 15.1685C16.2638 15.4341 16.6241 15.5834 16.9999 15.5834Z" fill="white" stroke="#214E60" stroke-width="3.1544" stroke-linecap="round" stroke-linejoin="round"/>
</svg>
