<svg width="43" height="43" viewBox="0 0 43 43" fill="none" xmlns="http://www.w3.org/2000/svg">
<path d="M27.7708 27.7708L34.0417 34.0417L27.7708 27.7708ZM8.95833 19.7083C8.95833 21.1201 9.23639 22.5179 9.77663 23.8222C10.3169 25.1264 11.1087 26.3115 12.1069 27.3097C13.1052 28.308 14.2902 29.0998 15.5945 29.6401C16.8987 30.1803 18.2966 30.4583 19.7083 30.4583C21.1201 30.4583 22.5179 30.1803 23.8222 29.6401C25.1264 29.0998 26.3115 28.308 27.3097 27.3097C28.308 26.3115 29.0998 25.1264 29.6401 23.8222C30.1803 22.5179 30.4583 21.1201 30.4583 19.7083C30.4583 16.8573 29.3258 14.123 27.3097 12.1069C25.2937 10.0909 22.5594 8.95833 19.7083 8.95833C16.8573 8.95833 14.123 10.0909 12.1069 12.1069C10.0909 14.123 8.95833 16.8573 8.95833 19.7083V19.7083Z" stroke="#214E60" stroke-width="3.1544" stroke-linecap="round" stroke-linejoin="round"/>
</svg>
